<?xml version="1.0" encoding="UTF-8"?>
<svg width="235px" height="237px" viewBox="0 0 235 237" version="1.1" xmlns="http://www.w3.org/2000/svg" xmlns:xlink="http://www.w3.org/1999/xlink">
    <!-- Generator: Sketch 49.3 (51167) - http://www.bohemiancoding.com/sketch -->
    <title>Artboard Copy 3</title>
    <desc>Created with Sketch.</desc>
    <defs></defs>
    <g id="Artboard-Copy-3" stroke="none" stroke-width="1" fill="none" fill-rule="evenodd">
        <rect id="Rectangle-11" fill="#5BCDB3" x="0" y="0" width="235" height="237" rx="24"></rect>
        <g id="Group-2" transform="translate(36.000000, 42.000000)" fill="#FFFFFF">
            <g id="Group-2-Copy" transform="translate(97.000000, 1.000000)">
                <path d="M0.497514381,3.32005188 L34.032545,41.489689 C34.7615895,42.3194889 36.0252826,42.4011673 36.8550825,41.6721228 C37.146931,41.4157109 37.3577847,41.0798516 37.4618866,40.7055718 L48.078369,2.53593469 C48.3743575,1.47176151 47.7516208,0.369132564 46.6874477,0.0731440091 C46.5129392,0.0246063167 46.3326458,-1.38816181e-15 46.151513,-1.99840144e-15 L2,-1.99840144e-15 C0.8954305,-1.79549532e-15 3.19744231e-14,0.8954305 3.19744231e-14,2 C3.19744231e-14,2.4858398 0.176847513,2.95506823 0.497514381,3.32005188 Z" id="Path-4"></path>
            </g>
            <g id="noun_217407_cc-copy-3" transform="translate(81.021083, 76.671583) scale(-1, 1) rotate(461.000000) translate(-81.021083, -76.671583) translate(16.521083, 6.671583)" fill-rule="nonzero">
                <g id="Group">
                    <path d="M37.8949328,98.3167639 C38.1331272,97.9933342 37.9030994,98.3196909 37.8949328,98.3167639 C40.3340436,95.0063662 42.8820433,91.773533 45.5089874,88.6387532 C48.0910149,85.5464144 50.681209,82.455539 53.2904587,79.3924698 C48.3877371,76.5679483 43.1665155,74.0273425 37.677155,72.8638738 C35.6967386,75.2156904 33.6999888,77.5601896 31.7753779,79.9676185 C22.3374346,91.6301117 14.4130467,103.817995 7.25632529,116.44346 C5.24188108,120.005577 3.28732576,123.598427 1.3776871,127.219083 C0.37727055,129.114293 -0.574146004,130.605581 0.608659412,132.74373 C2.48018697,136.111203 6.85615867,138.59766 10.2997694,139.584047 C13.203019,140.415306 13.5501023,138.223009 14.8159355,135.822897 C17.299963,131.109019 19.8615738,126.4449 22.538879,121.848101 C24.3845455,118.678198 26.280573,115.541955 28.2405728,112.452543 C28.2473784,112.45547 28.2569061,112.458397 28.2650728,112.464251 C31.3139613,107.653783 34.5166554,102.934052 37.9248772,98.3240813 C37.9139883,98.3226178 37.9030994,98.3196909 37.8949328,98.3167639 Z" id="Shape"></path>
                    <path d="M22.7035735,86.4742624 C21.2390181,84.0814682 20.084796,81.2832894 20.2113793,78.3592511 C20.3202682,75.8947463 21.4268514,73.0965675 23.188129,71.4706383 C25.4012954,69.4305435 28.7019894,69.0002796 31.505878,68.928569 C34.400961,68.8510044 37.2851551,69.2549256 40.0944881,69.9910574 C40.0944881,69.9910574 40.093127,69.9925208 40.0944881,69.9925208 C45.0421264,71.330144 50.4334868,73.8912386 55.4709585,76.84601 C55.4723196,76.8430831 55.4723196,76.8430831 55.4736807,76.8401561 C58.336097,78.5158437 61.1141245,80.345197 63.8186519,82.2945559 C67.3344015,78.2641247 70.5888178,73.6541544 73.4022341,68.9607656 C65.8739295,63.4697787 57.7725971,58.6256512 49.1622092,55.4030624 C43.0167933,53.0980772 36.5923496,51.8233838 30.0699059,52.1629118 C22.2516846,52.56976 14.4797411,55.559655 9.70768611,62.5477846 C5.14524221,69.2285829 3.46018685,77.522139 5.37118663,85.5888554 C6.69963091,91.185213 9.5321028,96.2503264 13.0914079,100.52955 C16.1198798,95.7746945 19.3144072,91.0900866 22.7035735,86.4742624 Z" id="Shape"></path>
                    <path d="M102.953314,0.740522217 C101.223342,0.854673863 100.031009,2.03570436 98.9217033,4.55874843 C96.0633703,11.1019793 93.7739817,17.9101006 92.3652319,25.0475054 C92.1624263,26.0836511 91.9568986,27.1168699 91.7418431,28.1559425 C97.0188702,27.1973614 102.446981,27.147603 107.657313,28.581816 C108.748924,23.0118011 110.56873,17.5530108 112.864924,12.2244705 C113.425702,10.9336788 114.34309,9.3926316 113.805452,7.9335394 C112.536896,4.49142823 109.271591,2.61670696 106.233591,1.42835906 C104.943258,0.923457547 103.870703,0.681982911 102.953314,0.740522217 Z" id="Shape"></path>
                    <path d="M113.609452,34.7928363 C105.807564,29.8901695 96.2729814,30.0540795 87.7605935,32.4819972 C78.3240113,35.1777323 69.7639846,40.5604214 62.1254299,47.002672 C59.4984858,49.2154578 56.973625,51.5628839 54.5277086,54.001046 C60.139569,56.5050648 65.3254017,59.5505722 69.4767901,62.2594786 C72.9966231,59.0910386 76.6716226,56.2182222 80.5643999,53.8049393 L80.8869832,53.6000518 C82.2916497,52.7453779 83.7385107,51.9858304 85.2071494,51.2731144 C85.2057883,51.2760413 85.2057883,51.2760413 85.2057883,51.2775048 C90.5318154,48.7544607 97.028398,46.5533828 102.859397,48.1368711 C102.864842,48.1295536 102.866203,48.1222362 102.866203,48.1163823 C104.411064,48.5334749 105.916452,49.3047302 107.141452,50.4081961 L107.140091,50.4140501 C113.685674,56.3382278 114.017785,67.3787408 110.297869,75.1103196 C108.63323,78.5685291 106.070258,81.5613511 102.817203,83.3307016 C99.1857588,85.3137206 94.9717593,83.8736537 91.544482,82.0808875 C88.9651767,86.3601107 85.7883438,91.0754518 82.0221498,95.6956665 C88.6303434,99.6236539 96.243037,102.314998 103.831231,100.623213 C111.469785,98.9226457 118.092951,93.1521336 122.316478,86.248886 C131.687727,70.9408576 130.26945,47.9041773 116.000924,36.4904762 C115.233257,35.8758135 114.437007,35.3079822 113.609452,34.7928363 Z" id="Shape"></path>
                    <path d="M89.8417322,78.70756 C94.8601482,70.105209 98.7488422,60.8999032 101.850814,51.3228728 C96.8133425,50.1081822 91.1361487,52.1512039 86.5532881,54.3113043 C85.8659271,54.6332705 85.1880938,54.9771889 84.5170661,55.3342787 C84.2584551,55.4718461 83.9971218,55.6167308 83.742594,55.7601521 C83.3015941,56.0089442 83.2335385,56.3323739 83.0375385,56.8167866 C82.3528997,58.4910108 81.6287887,60.1476731 80.8556777,61.7794563 C79.3720667,64.9054552 77.7292058,67.9436451 75.9679283,70.8969531 C75.9679283,70.8969531 75.9624838,70.8940261 75.9611227,70.8925627 C73.1858175,75.5200948 69.965429,80.1300651 66.4265405,84.22928 C66.4292627,84.22928 66.4306238,84.22928 66.4319849,84.2322069 C64.776874,86.1508327 63.0264853,87.9816495 61.1808189,89.6909972 L61.1794578,89.6880702 C56.3679306,94.135594 50.5614313,98.0635814 44.1124876,98.7631261 C43.4237654,98.8348367 42.7295989,98.8684968 42.0340712,98.8655699 C41.5114046,98.859716 41.4732935,98.9050839 41.1398213,99.3543731 C40.8281269,99.7714656 40.5177936,100.188558 40.2088214,100.611505 C39.160766,102.032546 38.1317661,103.469686 37.1177384,104.918534 C35.100572,107.805985 33.1473778,110.743195 31.2472669,113.722846 C38.4910994,116.412727 46.2916262,116.326381 53.551792,113.759433 C61.9770688,110.778319 69.2767068,104.930242 75.5119561,98.2728594 C80.9849832,92.3999036 85.7407049,85.7513019 89.8417322,78.70756 C90.0826488,78.3051022 89.7804822,78.8158577 89.8417322,78.70756 Z" id="Shape"></path>
                </g>
            </g>
        </g>
    </g>
</svg>