<?xml version="1.0" standalone="no"?>
<!DOCTYPE svg PUBLIC "-//W3C//DTD SVG 20010904//EN"
 "http://www.w3.org/TR/2001/REC-SVG-20010904/DTD/svg10.dtd">
<svg version="1.0" xmlns="http://www.w3.org/2000/svg"
 width="948.000000pt" height="948.000000pt" viewBox="0 0 948.000000 948.000000"
 preserveAspectRatio="xMidYMid meet">
<metadata>
Created by potrace 1.11, written by Peter Selinger 2001-2013
</metadata>
<g transform="translate(0.000000,948.000000) scale(0.100000,-0.100000)"
fill="#000000" stroke="none">
<path d="M899 9476 c-2 -2 -22 -6 -44 -10 -116 -17 -147 -27 -287 -89 -27 -12
-48 -25 -48 -29 0 -5 -6 -8 -12 -8 -33 0 -209 -157 -283 -252 -38 -48 -125
-213 -125 -236 0 -5 -7 -22 -14 -38 -8 -15 -13 -31 -10 -36 3 -4 0 -16 -5 -27
-6 -10 -14 -43 -18 -73 -5 -29 -8 -1810 -8 -3958 0 -3729 1 -3908 18 -3970 10
-36 20 -72 22 -80 2 -8 4 -16 5 -17 2 -2 3 -7 4 -12 0 -5 4 -13 8 -17 5 -4 8
-16 8 -26 0 -10 5 -18 10 -18 6 0 9 -4 8 -8 -3 -8 41 -102 52 -112 3 -3 18
-24 33 -48 16 -24 40 -57 55 -72 15 -16 38 -42 52 -57 73 -79 284 -214 358
-228 9 -2 17 -4 17 -5 0 -2 8 -4 70 -19 22 -5 54 -13 70 -18 43 -11 7718 -14
7780 -3 28 5 64 12 80 16 17 4 37 8 45 9 8 1 29 8 45 15 17 6 35 13 40 14 22
5 192 93 205 106 3 3 34 30 70 60 70 60 93 84 157 169 44 58 123 207 123 233
0 8 4 18 8 23 5 6 15 37 22 70 8 33 16 67 19 75 3 8 6 1772 7 3920 2 3678 1
3910 -15 3985 -31 140 -65 225 -136 335 -112 173 -257 290 -470 380 -21 9 -49
18 -82 25 -10 2 -47 11 -83 19 -56 12 -574 14 -3906 15 -2112 1 -3843 -1
-3845 -3z"/>
</g>
</svg>
